<mxfile host="app.diagrams.net" modified="2023-05-04T05:47:41.890Z" agent="Mozilla/5.0 (Windows NT 10.0; Win64; x64) AppleWebKit/537.36 (KHTML, like Gecko) Chrome/112.0.0.0 Safari/537.36" etag="60YZz3XgxxBlA11nbr-g" version="21.2.7" type="github">
  <diagram name="Page-1" id="l539_yyUPRejLKGmjSOX">
    <mxGraphModel dx="1432" dy="836" grid="1" gridSize="10" guides="1" tooltips="1" connect="1" arrows="1" fold="1" page="1" pageScale="1" pageWidth="827" pageHeight="1169" math="0" shadow="0">
      <root>
        <mxCell id="0" />
        <mxCell id="1" parent="0" />
        <mxCell id="QuUhz-nFBRAf6Jx1Iwls-1" value="测得的入瞳面振幅常数" style="rounded=0;whiteSpace=wrap;html=1;" vertex="1" parent="1">
          <mxGeometry x="170" y="190" width="120" height="60" as="geometry" />
        </mxCell>
      </root>
    </mxGraphModel>
  </diagram>
</mxfile>
